<?xml version="1.0" standalone="no"?>
<svg xmlns="http://www.w3.org/2000/svg" width="500" height="500"><defs><clipPath id="clip-path-dot-color"><path d="M 19 145v 14h 7a 7 7, 0, 0, 0, 0 -14" transform="rotate(-90,26,152)"/><path d="M 19 159v 14h 14v -7a 7 7, 0, 0, 0, -7 -7" transform="rotate(180,26,166)"/><path d="M 19 271v 14h 7a 7 7, 0, 0, 0, 0 -14" transform="rotate(180,26,278)"/><path d="M 19 299v 14h 7a 7 7, 0, 0, 0, 0 -14" transform="rotate(180,26,306)"/><path d="M 19 327v 14h 7a 7 7, 0, 0, 0, 0 -14" transform="rotate(-90,26,334)"/><rect x="19" y="341" width="14" height="14" transform="rotate(0,26,348)"/><path d="M 19 355v 14h 14v -7a 7 7, 0, 0, 0, -7 -7" transform="rotate(180,26,362)"/><path d="M 33 159v 14h 14v -7a 7 7, 0, 0, 0, -7 -7" transform="rotate(0,40,166)"/><path d="M 33 173v 14h 14v -7a 7 7, 0, 0, 0, -7 -7" transform="rotate(180,40,180)"/><path d="M 33 201v 14h 7a 7 7, 0, 0, 0, 0 -14" transform="rotate(-90,40,208)"/><path d="M 33 215v 14h 7a 7 7, 0, 0, 0, 0 -14" transform="rotate(90,40,222)"/><rect x="33" y="271" width="14" height="14" transform="rotate(0,40,278)"/><rect x="33" y="285" width="14" height="14" transform="rotate(0,40,292)"/><path d="M 33 299v 14h 14v -7a 7 7, 0, 0, 0, -7 -7" transform="rotate(90,40,306)"/><path d="M 33 355v 14h 7a 7 7, 0, 0, 0, 0 -14" transform="rotate(0,40,362)"/><path d="M 47 131v 14h 7a 7 7, 0, 0, 0, 0 -14" transform="rotate(-90,54,138)"/><path d="M 47 145v 14h 7a 7 7, 0, 0, 0, 0 -14" transform="rotate(90,54,152)"/><rect x="47" y="173" width="14" height="14" transform="rotate(0,54,180)"/><path d="M 47 187v 14h 14v -7a 7 7, 0, 0, 0, -7 -7" transform="rotate(180,54,194)"/><path d="M 47 229v 14h 7a 7 7, 0, 0, 0, 0 -14" transform="rotate(-90,54,236)"/><rect x="47" y="243" width="14" height="14" transform="rotate(0,54,250)"/><rect x="47" y="257" width="14" height="14" transform="rotate(0,54,264)"/><rect x="47" y="271" width="14" height="14" transform="rotate(0,54,278)"/><path d="M 47 285v 14h 14v -7a 7 7, 0, 0, 0, -7 -7" transform="rotate(90,54,292)"/><path d="M 47 313v 14h 7a 7 7, 0, 0, 0, 0 -14" transform="rotate(180,54,320)"/><path d="M 61 173v 14h 14v -7a 7 7, 0, 0, 0, -7 -7" transform="rotate(0,68,180)"/><rect x="61" y="187" width="14" height="14" transform="rotate(0,68,194)"/><path d="M 61 201v 14h 14v -7a 7 7, 0, 0, 0, -7 -7" transform="rotate(180,68,208)"/><path d="M 61 243v 14h 14v -7a 7 7, 0, 0, 0, -7 -7" transform="rotate(0,68,250)"/><rect x="61" y="257" width="14" height="14" transform="rotate(0,68,264)"/><path d="M 61 313v 14h 14v -7a 7 7, 0, 0, 0, -7 -7" transform="rotate(0,68,320)"/><rect x="61" y="327" width="14" height="14" transform="rotate(0,68,334)"/><path d="M 61 341v 14h 7a 7 7, 0, 0, 0, 0 -14" transform="rotate(90,68,348)"/><path d="M 75 131v 14h 14v -7a 7 7, 0, 0, 0, -7 -7" transform="rotate(-90,82,138)"/><rect x="75" y="145" width="14" height="14" transform="rotate(0,82,152)"/><path d="M 75 159v 14h 14v -7a 7 7, 0, 0, 0, -7 -7" transform="rotate(180,82,166)"/><path d="M 75 201v 14h 14v -7a 7 7, 0, 0, 0, -7 -7" transform="rotate(0,82,208)"/><rect x="75" y="215" width="14" height="14" transform="rotate(0,82,222)"/><path d="M 75 229v 14h 14v -7a 7 7, 0, 0, 0, -7 -7" transform="rotate(180,82,236)"/><rect x="75" y="257" width="14" height="14" transform="rotate(0,82,264)"/><circle cx="82" cy="292" r="7" transform="rotate(0,82,292)"/><path d="M 75 327v 14h 7a 7 7, 0, 0, 0, 0 -14" transform="rotate(0,82,334)"/><rect x="89" y="131" width="14" height="14" transform="rotate(0,96,138)"/><rect x="89" y="145" width="14" height="14" transform="rotate(0,96,152)"/><rect x="89" y="159" width="14" height="14" transform="rotate(0,96,166)"/><rect x="89" y="173" width="14" height="14" transform="rotate(0,96,180)"/><path d="M 89 187v 14h 14v -7a 7 7, 0, 0, 0, -7 -7" transform="rotate(180,96,194)"/><path d="M 89 229v 14h 7a 7 7, 0, 0, 0, 0 -14" transform="rotate(0,96,236)"/><path d="M 89 257v 14h 7a 7 7, 0, 0, 0, 0 -14" transform="rotate(0,96,264)"/><path d="M 89 299v 14h 14v -7a 7 7, 0, 0, 0, -7 -7" transform="rotate(-90,96,306)"/><path d="M 89 313v 14h 7a 7 7, 0, 0, 0, 0 -14" transform="rotate(90,96,320)"/><path d="M 89 341v 14h 7a 7 7, 0, 0, 0, 0 -14" transform="rotate(-90,96,348)"/><path d="M 89 355v 14h 14v -7a 7 7, 0, 0, 0, -7 -7" transform="rotate(180,96,362)"/><path d="M 103 131v 14h 7a 7 7, 0, 0, 0, 0 -14" transform="rotate(0,110,138)"/><path d="M 103 159v 14h 7a 7 7, 0, 0, 0, 0 -14" transform="rotate(0,110,166)"/><rect x="103" y="187" width="14" height="14" transform="rotate(0,110,194)"/><path d="M 103 215v 14h 7a 7 7, 0, 0, 0, 0 -14" transform="rotate(180,110,222)"/><path d="M 103 243v 14h 7a 7 7, 0, 0, 0, 0 -14" transform="rotate(180,110,250)"/><circle cx="110" cy="278" r="7" transform="rotate(0,110,278)"/><rect x="103" y="299" width="14" height="14" transform="rotate(0,110,306)"/><circle cx="110" cy="334" r="7" transform="rotate(0,110,334)"/><rect x="103" y="355" width="14" height="14" transform="rotate(0,110,362)"/><path d="M 117 173v 14h 14v -7a 7 7, 0, 0, 0, -7 -7" transform="rotate(-90,124,180)"/><rect x="117" y="187" width="14" height="14" transform="rotate(0,124,194)"/><rect x="117" y="215" width="14" height="14" transform="rotate(0,124,222)"/><path d="M 117 243v 14h 14v -7a 7 7, 0, 0, 0, -7 -7" transform="rotate(0,124,250)"/><path d="M 117 257v 14h 14v -7a 7 7, 0, 0, 0, -7 -7" transform="rotate(180,124,264)"/><path d="M 117 285v 14h 7a 7 7, 0, 0, 0, 0 -14" transform="rotate(-90,124,292)"/><rect x="117" y="299" width="14" height="14" transform="rotate(0,124,306)"/><path d="M 117 313v 14h 14v -7a 7 7, 0, 0, 0, -7 -7" transform="rotate(180,124,320)"/><rect x="117" y="355" width="14" height="14" transform="rotate(0,124,362)"/><circle cx="138" cy="40" r="7" transform="rotate(0,138,40)"/><circle cx="138" cy="82" r="7" transform="rotate(0,138,82)"/><circle cx="138" cy="110" r="7" transform="rotate(0,138,110)"/><path d="M 131 131v 14h 14v -7a 7 7, 0, 0, 0, -7 -7" transform="rotate(-90,138,138)"/><rect x="131" y="145" width="14" height="14" transform="rotate(0,138,152)"/><rect x="131" y="159" width="14" height="14" transform="rotate(0,138,166)"/><rect x="131" y="173" width="14" height="14" transform="rotate(0,138,180)"/><rect x="131" y="187" width="14" height="14" transform="rotate(0,138,194)"/><path d="M 131 215v 14h 14v -7a 7 7, 0, 0, 0, -7 -7" transform="rotate(0,138,222)"/><path d="M 131 229v 14h 14v -7a 7 7, 0, 0, 0, -7 -7" transform="rotate(180,138,236)"/><rect x="131" y="257" width="14" height="14" transform="rotate(0,138,264)"/><path d="M 131 299v 14h 14v -7a 7 7, 0, 0, 0, -7 -7" transform="rotate(0,138,306)"/><rect x="131" y="313" width="14" height="14" transform="rotate(0,138,320)"/><path d="M 131 341v 14h 14v -7a 7 7, 0, 0, 0, -7 -7" transform="rotate(-90,138,348)"/><rect x="131" y="355" width="14" height="14" transform="rotate(0,138,362)"/><path d="M 131 369v 14h 14v -7a 7 7, 0, 0, 0, -7 -7" transform="rotate(180,138,376)"/><path d="M 131 397v 14h 7a 7 7, 0, 0, 0, 0 -14" transform="rotate(-90,138,404)"/><path d="M 131 411v 14h 7a 7 7, 0, 0, 0, 0 -14" transform="rotate(90,138,418)"/><path d="M 131 439v 14h 7a 7 7, 0, 0, 0, 0 -14" transform="rotate(180,138,446)"/><path d="M 145 47v 14h 7a 7 7, 0, 0, 0, 0 -14" transform="rotate(180,152,54)"/><path d="M 145 131v 14h 14v -7a 7 7, 0, 0, 0, -7 -7" transform="rotate(0,152,138)"/><rect x="145" y="145" width="14" height="14" transform="rotate(0,152,152)"/><rect x="145" y="159" width="14" height="14" transform="rotate(0,152,166)"/><rect x="145" y="173" width="14" height="14" transform="rotate(0,152,180)"/><rect x="145" y="187" width="14" height="14" transform="rotate(0,152,194)"/><path d="M 145 201v 14h 7a 7 7, 0, 0, 0, 0 -14" transform="rotate(90,152,208)"/><path d="M 145 229v 14h 14v -7a 7 7, 0, 0, 0, -7 -7" transform="rotate(0,152,236)"/><rect x="145" y="243" width="14" height="14" transform="rotate(0,152,250)"/><rect x="145" y="257" width="14" height="14" transform="rotate(0,152,264)"/><path d="M 145 271v 14h 14v -7a 7 7, 0, 0, 0, -7 -7" transform="rotate(180,152,278)"/><path d="M 145 313v 14h 7a 7 7, 0, 0, 0, 0 -14" transform="rotate(0,152,320)"/><rect x="145" y="341" width="14" height="14" transform="rotate(0,152,348)"/><rect x="145" y="369" width="14" height="14" transform="rotate(0,152,376)"/><path d="M 145 425v 14h 14v -7a 7 7, 0, 0, 0, -7 -7" transform="rotate(-90,152,432)"/><path d="M 145 439v 14h 14v -7a 7 7, 0, 0, 0, -7 -7" transform="rotate(90,152,446)"/><circle cx="152" cy="474" r="7" transform="rotate(0,152,474)"/><circle cx="166" cy="26" r="7" transform="rotate(0,166,26)"/><path d="M 159 47v 14h 14v -7a 7 7, 0, 0, 0, -7 -7" transform="rotate(0,166,54)"/><path d="M 159 61v 14h 14v -7a 7 7, 0, 0, 0, -7 -7" transform="rotate(180,166,68)"/><path d="M 159 89v 14h 7a 7 7, 0, 0, 0, 0 -14" transform="rotate(-90,166,96)"/><rect x="159" y="103" width="14" height="14" transform="rotate(0,166,110)"/><path d="M 159 117v 14h 7a 7 7, 0, 0, 0, 0 -14" transform="rotate(90,166,124)"/><path d="M 159 159v 14h 14v -7a 7 7, 0, 0, 0, -7 -7" transform="rotate(0,166,166)"/><path d="M 159 173v 14h 14v -7a 7 7, 0, 0, 0, -7 -7" transform="rotate(90,166,180)"/><circle cx="166" cy="222" r="7" transform="rotate(0,166,222)"/><path d="M 159 271v 14h 7a 7 7, 0, 0, 0, 0 -14" transform="rotate(0,166,278)"/><path d="M 159 299v 14h 7a 7 7, 0, 0, 0, 0 -14" transform="rotate(180,166,306)"/><rect x="159" y="341" width="14" height="14" transform="rotate(0,166,348)"/><rect x="159" y="369" width="14" height="14" transform="rotate(0,166,376)"/><path d="M 159 383v 14h 14v -7a 7 7, 0, 0, 0, -7 -7" transform="rotate(180,166,390)"/><path d="M 159 425v 14h 7a 7 7, 0, 0, 0, 0 -14" transform="rotate(0,166,432)"/><path d="M 159 453v 14h 7a 7 7, 0, 0, 0, 0 -14" transform="rotate(180,166,460)"/><circle cx="180" cy="40" r="7" transform="rotate(0,180,40)"/><rect x="173" y="61" width="14" height="14" transform="rotate(0,180,68)"/><circle cx="180" cy="152" r="7" transform="rotate(0,180,152)"/><path d="M 173 299v 14h 7a 7 7, 0, 0, 0, 0 -14" transform="rotate(0,180,306)"/><path d="M 173 327v 14h 14v -7a 7 7, 0, 0, 0, -7 -7" transform="rotate(-90,180,334)"/><rect x="173" y="341" width="14" height="14" transform="rotate(0,180,348)"/><rect x="173" y="355" width="14" height="14" transform="rotate(0,180,362)"/><rect x="173" y="369" width="14" height="14" transform="rotate(0,180,376)"/><rect x="173" y="383" width="14" height="14" transform="rotate(0,180,390)"/><path d="M 173 453v 14h 14v -7a 7 7, 0, 0, 0, -7 -7" transform="rotate(0,180,460)"/><path d="M 173 467v 14h 7a 7 7, 0, 0, 0, 0 -14" transform="rotate(90,180,474)"/><path d="M 187 61v 14h 7a 7 7, 0, 0, 0, 0 -14" transform="rotate(0,194,68)"/><path d="M 187 89v 14h 14v -7a 7 7, 0, 0, 0, -7 -7" transform="rotate(-90,194,96)"/><path d="M 187 103v 14h 7a 7 7, 0, 0, 0, 0 -14" transform="rotate(90,194,110)"/><path d="M 187 173v 14h 7a 7 7, 0, 0, 0, 0 -14" transform="rotate(-90,194,180)"/><rect x="187" y="187" width="14" height="14" transform="rotate(0,194,194)"/><rect x="187" y="201" width="14" height="14" transform="rotate(0,194,208)"/><rect x="187" y="215" width="14" height="14" transform="rotate(0,194,222)"/><path d="M 187 229v 14h 14v -7a 7 7, 0, 0, 0, -7 -7" transform="rotate(180,194,236)"/><path d="M 187 285v 14h 7a 7 7, 0, 0, 0, 0 -14" transform="rotate(180,194,292)"/><path d="M 187 327v 14h 7a 7 7, 0, 0, 0, 0 -14" transform="rotate(0,194,334)"/><rect x="187" y="355" width="14" height="14" transform="rotate(0,194,362)"/><path d="M 187 383v 14h 7a 7 7, 0, 0, 0, 0 -14" transform="rotate(0,194,390)"/><path d="M 187 411v 14h 7a 7 7, 0, 0, 0, 0 -14" transform="rotate(-90,194,418)"/><path d="M 187 425v 14h 7a 7 7, 0, 0, 0, 0 -14" transform="rotate(90,194,432)"/><rect x="201" y="89" width="14" height="14" transform="rotate(0,208,96)"/><path d="M 201 145v 14h 7a 7 7, 0, 0, 0, 0 -14" transform="rotate(-90,208,152)"/><path d="M 201 159v 14h 7a 7 7, 0, 0, 0, 0 -14" transform="rotate(90,208,166)"/><rect x="201" y="201" width="14" height="14" transform="rotate(0,208,208)"/><rect x="201" y="229" width="14" height="14" transform="rotate(0,208,236)"/><path d="M 201 257v 14h 7a 7 7, 0, 0, 0, 0 -14" transform="rotate(-90,208,264)"/><rect x="201" y="271" width="14" height="14" transform="rotate(0,208,278)"/><rect x="201" y="285" width="14" height="14" transform="rotate(0,208,292)"/><rect x="201" y="299" width="14" height="14" transform="rotate(0,208,306)"/><path d="M 201 313v 14h 7a 7 7, 0, 0, 0, 0 -14" transform="rotate(90,208,320)"/><rect x="201" y="355" width="14" height="14" transform="rotate(0,208,362)"/><path d="M 201 369v 14h 14v -7a 7 7, 0, 0, 0, -7 -7" transform="rotate(180,208,376)"/><path d="M 201 397v 14h 7a 7 7, 0, 0, 0, 0 -14" transform="rotate(180,208,404)"/><circle cx="208" cy="446" r="7" transform="rotate(0,208,446)"/><path d="M 215 19v 14h 7a 7 7, 0, 0, 0, 0 -14" transform="rotate(-90,222,26)"/><rect x="215" y="33" width="14" height="14" transform="rotate(0,222,40)"/><path d="M 215 47v 14h 7a 7 7, 0, 0, 0, 0 -14" transform="rotate(90,222,54)"/><path d="M 215 89v 14h 14v -7a 7 7, 0, 0, 0, -7 -7" transform="rotate(0,222,96)"/><rect x="215" y="103" width="14" height="14" transform="rotate(0,222,110)"/><rect x="215" y="117" width="14" height="14" transform="rotate(0,222,124)"/><path d="M 215 131v 14h 14v -7a 7 7, 0, 0, 0, -7 -7" transform="rotate(180,222,138)"/><circle cx="222" cy="180" r="7" transform="rotate(0,222,180)"/><path d="M 215 201v 14h 14v -7a 7 7, 0, 0, 0, -7 -7" transform="rotate(0,222,208)"/><rect x="215" y="215" width="14" height="14" transform="rotate(0,222,222)"/><rect x="215" y="229" width="14" height="14" transform="rotate(0,222,236)"/><path d="M 215 299v 14h 7a 7 7, 0, 0, 0, 0 -14" transform="rotate(0,222,306)"/><path d="M 215 341v 14h 7a 7 7, 0, 0, 0, 0 -14" transform="rotate(-90,222,348)"/><rect x="215" y="355" width="14" height="14" transform="rotate(0,222,362)"/><rect x="215" y="369" width="14" height="14" transform="rotate(0,222,376)"/><rect x="215" y="383" width="14" height="14" transform="rotate(0,222,390)"/><path d="M 215 397v 14h 14v -7a 7 7, 0, 0, 0, -7 -7" transform="rotate(90,222,404)"/><circle cx="222" cy="432" r="7" transform="rotate(0,222,432)"/><circle cx="222" cy="460" r="7" transform="rotate(0,222,460)"/><path d="M 229 33v 14h 7a 7 7, 0, 0, 0, 0 -14" transform="rotate(0,236,40)"/><path d="M 229 131v 14h 14v -7a 7 7, 0, 0, 0, -7 -7" transform="rotate(0,236,138)"/><rect x="229" y="145" width="14" height="14" transform="rotate(0,236,152)"/><path d="M 229 159v 14h 7a 7 7, 0, 0, 0, 0 -14" transform="rotate(90,236,166)"/><rect x="229" y="229" width="14" height="14" transform="rotate(0,236,236)"/><rect x="229" y="243" width="14" height="14" transform="rotate(0,236,250)"/><rect x="229" y="257" width="14" height="14" transform="rotate(0,236,264)"/><path d="M 229 271v 14h 7a 7 7, 0, 0, 0, 0 -14" transform="rotate(90,236,278)"/><path d="M 229 313v 14h 14v -7a 7 7, 0, 0, 0, -7 -7" transform="rotate(-90,236,320)"/><path d="M 229 327v 14h 14v -7a 7 7, 0, 0, 0, -7 -7" transform="rotate(180,236,334)"/><path d="M 229 355v 14h 14v -7a 7 7, 0, 0, 0, -7 -7" transform="rotate(0,236,362)"/><rect x="229" y="369" width="14" height="14" transform="rotate(0,236,376)"/><rect x="229" y="383" width="14" height="14" transform="rotate(0,236,390)"/><path d="M 229 411v 14h 7a 7 7, 0, 0, 0, 0 -14" transform="rotate(180,236,418)"/><path d="M 243 47v 14h 7a 7 7, 0, 0, 0, 0 -14" transform="rotate(180,250,54)"/><path d="M 243 75v 14h 14v -7a 7 7, 0, 0, 0, -7 -7" transform="rotate(-90,250,82)"/><rect x="243" y="89" width="14" height="14" transform="rotate(0,250,96)"/><path d="M 243 103v 14h 7a 7 7, 0, 0, 0, 0 -14" transform="rotate(90,250,110)"/><path d="M 243 215v 14h 7a 7 7, 0, 0, 0, 0 -14" transform="rotate(-90,250,222)"/><rect x="243" y="229" width="14" height="14" transform="rotate(0,250,236)"/><rect x="243" y="257" width="14" height="14" transform="rotate(0,250,264)"/><circle cx="250" cy="292" r="7" transform="rotate(0,250,292)"/><path d="M 243 313v 14h 14v -7a 7 7, 0, 0, 0, -7 -7" transform="rotate(0,250,320)"/><rect x="243" y="327" width="14" height="14" transform="rotate(0,250,334)"/><path d="M 243 341v 14h 14v -7a 7 7, 0, 0, 0, -7 -7" transform="rotate(180,250,348)"/><path d="M 243 383v 14h 7a 7 7, 0, 0, 0, 0 -14" transform="rotate(0,250,390)"/><path d="M 243 411v 14h 7a 7 7, 0, 0, 0, 0 -14" transform="rotate(0,250,418)"/><path d="M 243 453v 14h 7a 7 7, 0, 0, 0, 0 -14" transform="rotate(180,250,460)"/><path d="M 257 33v 14h 7a 7 7, 0, 0, 0, 0 -14" transform="rotate(-90,264,40)"/><path d="M 257 47v 14h 14v -7a 7 7, 0, 0, 0, -7 -7" transform="rotate(90,264,54)"/><path d="M 257 75v 14h 14v -7a 7 7, 0, 0, 0, -7 -7" transform="rotate(0,264,82)"/><path d="M 257 89v 14h 14v -7a 7 7, 0, 0, 0, -7 -7" transform="rotate(90,264,96)"/><path d="M 257 131v 14h 7a 7 7, 0, 0, 0, 0 -14" transform="rotate(180,264,138)"/><path d="M 257 173v 14h 7a 7 7, 0, 0, 0, 0 -14" transform="rotate(180,264,180)"/><path d="M 257 229v 14h 14v -7a 7 7, 0, 0, 0, -7 -7" transform="rotate(0,264,236)"/><rect x="257" y="243" width="14" height="14" transform="rotate(0,264,250)"/><rect x="257" y="257" width="14" height="14" transform="rotate(0,264,264)"/><path d="M 257 271v 14h 14v -7a 7 7, 0, 0, 0, -7 -7" transform="rotate(180,264,278)"/><rect x="257" y="341" width="14" height="14" transform="rotate(0,264,348)"/><path d="M 257 425v 14h 14v -7a 7 7, 0, 0, 0, -7 -7" transform="rotate(-90,264,432)"/><rect x="257" y="439" width="14" height="14" transform="rotate(0,264,446)"/><path d="M 257 453v 14h 14v -7a 7 7, 0, 0, 0, -7 -7" transform="rotate(90,264,460)"/><circle cx="278" cy="68" r="7" transform="rotate(0,278,68)"/><path d="M 271 103v 14h 7a 7 7, 0, 0, 0, 0 -14" transform="rotate(-90,278,110)"/><rect x="271" y="117" width="14" height="14" transform="rotate(0,278,124)"/><path d="M 271 131v 14h 14v -7a 7 7, 0, 0, 0, -7 -7" transform="rotate(90,278,138)"/><path d="M 271 159v 14h 7a 7 7, 0, 0, 0, 0 -14" transform="rotate(-90,278,166)"/><rect x="271" y="173" width="14" height="14" transform="rotate(0,278,180)"/><path d="M 271 201v 14h 7a 7 7, 0, 0, 0, 0 -14" transform="rotate(180,278,208)"/><rect x="271" y="243" width="14" height="14" transform="rotate(0,278,250)"/><rect x="271" y="271" width="14" height="14" transform="rotate(0,278,278)"/><path d="M 271 313v 14h 14v -7a 7 7, 0, 0, 0, -7 -7" transform="rotate(-90,278,320)"/><rect x="271" y="327" width="14" height="14" transform="rotate(0,278,334)"/><rect x="271" y="341" width="14" height="14" transform="rotate(0,278,348)"/><rect x="271" y="355" width="14" height="14" transform="rotate(0,278,362)"/><rect x="271" y="369" width="14" height="14" transform="rotate(0,278,376)"/><rect x="271" y="383" width="14" height="14" transform="rotate(0,278,390)"/><path d="M 271 397v 14h 14v -7a 7 7, 0, 0, 0, -7 -7" transform="rotate(180,278,404)"/><path d="M 271 425v 14h 7a 7 7, 0, 0, 0, 0 -14" transform="rotate(0,278,432)"/><circle cx="292" cy="26" r="7" transform="rotate(0,292,26)"/><path d="M 285 75v 14h 14v -7a 7 7, 0, 0, 0, -7 -7" transform="rotate(-90,292,82)"/><path d="M 285 89v 14h 14v -7a 7 7, 0, 0, 0, -7 -7" transform="rotate(180,292,96)"/><path d="M 285 117v 14h 7a 7 7, 0, 0, 0, 0 -14" transform="rotate(0,292,124)"/><rect x="285" y="173" width="14" height="14" transform="rotate(0,292,180)"/><rect x="285" y="187" width="14" height="14" transform="rotate(0,292,194)"/><rect x="285" y="201" width="14" height="14" transform="rotate(0,292,208)"/><path d="M 285 229v 14h 7a 7 7, 0, 0, 0, 0 -14" transform="rotate(-90,292,236)"/><rect x="285" y="243" width="14" height="14" transform="rotate(0,292,250)"/><path d="M 285 271v 14h 7a 7 7, 0, 0, 0, 0 -14" transform="rotate(0,292,278)"/><path d="M 285 313v 14h 7a 7 7, 0, 0, 0, 0 -14" transform="rotate(0,292,320)"/><rect x="285" y="355" width="14" height="14" transform="rotate(0,292,362)"/><path d="M 285 397v 14h 7a 7 7, 0, 0, 0, 0 -14" transform="rotate(0,292,404)"/><path d="M 285 453v 14h 7a 7 7, 0, 0, 0, 0 -14" transform="rotate(-90,292,460)"/><path d="M 285 467v 14h 7a 7 7, 0, 0, 0, 0 -14" transform="rotate(90,292,474)"/><circle cx="306" cy="40" r="7" transform="rotate(0,306,40)"/><rect x="299" y="75" width="14" height="14" transform="rotate(0,306,82)"/><rect x="299" y="89" width="14" height="14" transform="rotate(0,306,96)"/><path d="M 299 103v 14h 7a 7 7, 0, 0, 0, 0 -14" transform="rotate(90,306,110)"/><path d="M 299 131v 14h 7a 7 7, 0, 0, 0, 0 -14" transform="rotate(-90,306,138)"/><rect x="299" y="145" width="14" height="14" transform="rotate(0,306,152)"/><rect x="299" y="159" width="14" height="14" transform="rotate(0,306,166)"/><rect x="299" y="173" width="14" height="14" transform="rotate(0,306,180)"/><rect x="299" y="187" width="14" height="14" transform="rotate(0,306,194)"/><rect x="299" y="201" width="14" height="14" transform="rotate(0,306,208)"/><path d="M 299 215v 14h 7a 7 7, 0, 0, 0, 0 -14" transform="rotate(90,306,222)"/><path d="M 299 243v 14h 14v -7a 7 7, 0, 0, 0, -7 -7" transform="rotate(0,306,250)"/><path d="M 299 257v 14h 7a 7 7, 0, 0, 0, 0 -14" transform="rotate(90,306,264)"/><circle cx="306" cy="306" r="7" transform="rotate(0,306,306)"/><path d="M 299 341v 14h 14v -7a 7 7, 0, 0, 0, -7 -7" transform="rotate(-90,306,348)"/><rect x="299" y="355" width="14" height="14" transform="rotate(0,306,362)"/><circle cx="306" cy="390" r="7" transform="rotate(0,306,390)"/><path d="M 299 411v 14h 7a 7 7, 0, 0, 0, 0 -14" transform="rotate(-90,306,418)"/><path d="M 299 425v 14h 14v -7a 7 7, 0, 0, 0, -7 -7" transform="rotate(180,306,432)"/><circle cx="320" cy="26" r="7" transform="rotate(0,320,26)"/><path d="M 313 47v 14h 7a 7 7, 0, 0, 0, 0 -14" transform="rotate(180,320,54)"/><path d="M 313 75v 14h 14v -7a 7 7, 0, 0, 0, -7 -7" transform="rotate(0,320,82)"/><rect x="313" y="89" width="14" height="14" transform="rotate(0,320,96)"/><rect x="313" y="145" width="14" height="14" transform="rotate(0,320,152)"/><rect x="313" y="159" width="14" height="14" transform="rotate(0,320,166)"/><path d="M 313 173v 14h 14v -7a 7 7, 0, 0, 0, -7 -7" transform="rotate(90,320,180)"/><path d="M 313 271v 14h 7a 7 7, 0, 0, 0, 0 -14" transform="rotate(-90,320,278)"/><path d="M 313 285v 14h 14v -7a 7 7, 0, 0, 0, -7 -7" transform="rotate(180,320,292)"/><path d="M 313 327v 14h 7a 7 7, 0, 0, 0, 0 -14" transform="rotate(-90,320,334)"/><rect x="313" y="341" width="14" height="14" transform="rotate(0,320,348)"/><rect x="313" y="355" width="14" height="14" transform="rotate(0,320,362)"/><path d="M 313 369v 14h 14v -7a 7 7, 0, 0, 0, -7 -7" transform="rotate(180,320,376)"/><path d="M 313 397v 14h 7a 7 7, 0, 0, 0, 0 -14" transform="rotate(180,320,404)"/><path d="M 313 425v 14h 7a 7 7, 0, 0, 0, 0 -14" transform="rotate(0,320,432)"/><path d="M 313 453v 14h 7a 7 7, 0, 0, 0, 0 -14" transform="rotate(180,320,460)"/><path d="M 327 47v 14h 14v -7a 7 7, 0, 0, 0, -7 -7" transform="rotate(0,334,54)"/><path d="M 327 61v 14h 7a 7 7, 0, 0, 0, 0 -14" transform="rotate(90,334,68)"/><path d="M 327 89v 14h 14v -7a 7 7, 0, 0, 0, -7 -7" transform="rotate(0,334,96)"/><path d="M 327 103v 14h 7a 7 7, 0, 0, 0, 0 -14" transform="rotate(90,334,110)"/><path d="M 327 131v 14h 14v -7a 7 7, 0, 0, 0, -7 -7" transform="rotate(-90,334,138)"/><rect x="327" y="145" width="14" height="14" transform="rotate(0,334,152)"/><path d="M 327 201v 14h 7a 7 7, 0, 0, 0, 0 -14" transform="rotate(-90,334,208)"/><rect x="327" y="215" width="14" height="14" transform="rotate(0,334,222)"/><path d="M 327 229v 14h 7a 7 7, 0, 0, 0, 0 -14" transform="rotate(90,334,236)"/><path d="M 327 257v 14h 7a 7 7, 0, 0, 0, 0 -14" transform="rotate(180,334,264)"/><rect x="327" y="285" width="14" height="14" transform="rotate(0,334,292)"/><path d="M 327 341v 14h 14v -7a 7 7, 0, 0, 0, -7 -7" transform="rotate(0,334,348)"/><rect x="327" y="355" width="14" height="14" transform="rotate(0,334,362)"/><path d="M 327 369v 14h 14v -7a 7 7, 0, 0, 0, -7 -7" transform="rotate(90,334,376)"/><path d="M 327 397v 14h 14v -7a 7 7, 0, 0, 0, -7 -7" transform="rotate(0,334,404)"/><path d="M 327 411v 14h 14v -7a 7 7, 0, 0, 0, -7 -7" transform="rotate(180,334,418)"/><path d="M 327 439v 14h 7a 7 7, 0, 0, 0, 0 -14" transform="rotate(-90,334,446)"/><rect x="327" y="453" width="14" height="14" transform="rotate(0,334,460)"/><path d="M 341 117v 14h 14v -7a 7 7, 0, 0, 0, -7 -7" transform="rotate(-90,348,124)"/><rect x="341" y="131" width="14" height="14" transform="rotate(0,348,138)"/><path d="M 341 145v 14h 14v -7a 7 7, 0, 0, 0, -7 -7" transform="rotate(90,348,152)"/><path d="M 341 187v 14h 7a 7 7, 0, 0, 0, 0 -14" transform="rotate(180,348,194)"/><path d="M 341 257v 14h 7a 7 7, 0, 0, 0, 0 -14" transform="rotate(0,348,264)"/><path d="M 341 285v 14h 14v -7a 7 7, 0, 0, 0, -7 -7" transform="rotate(0,348,292)"/><rect x="341" y="299" width="14" height="14" transform="rotate(0,348,306)"/><path d="M 341 313v 14h 14v -7a 7 7, 0, 0, 0, -7 -7" transform="rotate(180,348,320)"/><rect x="341" y="355" width="14" height="14" transform="rotate(0,348,362)"/><rect x="341" y="411" width="14" height="14" transform="rotate(0,348,418)"/><rect x="341" y="453" width="14" height="14" transform="rotate(0,348,460)"/><path d="M 341 467v 14h 14v -7a 7 7, 0, 0, 0, -7 -7" transform="rotate(180,348,474)"/><path d="M 355 19v 14h 7a 7 7, 0, 0, 0, 0 -14" transform="rotate(-90,362,26)"/><rect x="355" y="33" width="14" height="14" transform="rotate(0,362,40)"/><rect x="355" y="47" width="14" height="14" transform="rotate(0,362,54)"/><path d="M 355 61v 14h 7a 7 7, 0, 0, 0, 0 -14" transform="rotate(90,362,68)"/><path d="M 355 103v 14h 7a 7 7, 0, 0, 0, 0 -14" transform="rotate(-90,362,110)"/><path d="M 355 117v 14h 14v -7a 7 7, 0, 0, 0, -7 -7" transform="rotate(90,362,124)"/><rect x="355" y="187" width="14" height="14" transform="rotate(0,362,194)"/><rect x="355" y="201" width="14" height="14" transform="rotate(0,362,208)"/><rect x="355" y="215" width="14" height="14" transform="rotate(0,362,222)"/><path d="M 355 229v 14h 14v -7a 7 7, 0, 0, 0, -7 -7" transform="rotate(180,362,236)"/><circle cx="362" cy="278" r="7" transform="rotate(0,362,278)"/><path d="M 355 299v 14h 14v -7a 7 7, 0, 0, 0, -7 -7" transform="rotate(0,362,306)"/><rect x="355" y="313" width="14" height="14" transform="rotate(0,362,320)"/><rect x="355" y="327" width="14" height="14" transform="rotate(0,362,334)"/><rect x="355" y="341" width="14" height="14" transform="rotate(0,362,348)"/><rect x="355" y="355" width="14" height="14" transform="rotate(0,362,362)"/><rect x="355" y="369" width="14" height="14" transform="rotate(0,362,376)"/><rect x="355" y="383" width="14" height="14" transform="rotate(0,362,390)"/><rect x="355" y="397" width="14" height="14" transform="rotate(0,362,404)"/><rect x="355" y="411" width="14" height="14" transform="rotate(0,362,418)"/><path d="M 355 425v 14h 7a 7 7, 0, 0, 0, 0 -14" transform="rotate(90,362,432)"/><rect x="355" y="453" width="14" height="14" transform="rotate(0,362,460)"/><path d="M 355 467v 14h 14v -7a 7 7, 0, 0, 0, -7 -7" transform="rotate(90,362,474)"/><path d="M 369 131v 14h 7a 7 7, 0, 0, 0, 0 -14" transform="rotate(-90,376,138)"/><rect x="369" y="145" width="14" height="14" transform="rotate(0,376,152)"/><rect x="369" y="159" width="14" height="14" transform="rotate(0,376,166)"/><rect x="369" y="173" width="14" height="14" transform="rotate(0,376,180)"/><rect x="369" y="187" width="14" height="14" transform="rotate(0,376,194)"/><path d="M 369 201v 14h 14v -7a 7 7, 0, 0, 0, -7 -7" transform="rotate(90,376,208)"/><path d="M 369 229v 14h 7a 7 7, 0, 0, 0, 0 -14" transform="rotate(0,376,236)"/><path d="M 369 313v 14h 7a 7 7, 0, 0, 0, 0 -14" transform="rotate(0,376,320)"/><rect x="369" y="355" width="14" height="14" transform="rotate(0,376,362)"/><rect x="369" y="411" width="14" height="14" transform="rotate(0,376,418)"/><path d="M 369 439v 14h 7a 7 7, 0, 0, 0, 0 -14" transform="rotate(-90,376,446)"/><rect x="369" y="453" width="14" height="14" transform="rotate(0,376,460)"/><rect x="383" y="145" width="14" height="14" transform="rotate(0,390,152)"/><rect x="383" y="187" width="14" height="14" transform="rotate(0,390,194)"/><path d="M 383 243v 14h 7a 7 7, 0, 0, 0, 0 -14" transform="rotate(-90,390,250)"/><path d="M 383 257v 14h 7a 7 7, 0, 0, 0, 0 -14" transform="rotate(90,390,264)"/><rect x="383" y="355" width="14" height="14" transform="rotate(0,390,362)"/><circle cx="390" cy="390" r="7" transform="rotate(0,390,390)"/><rect x="383" y="411" width="14" height="14" transform="rotate(0,390,418)"/><path d="M 383 425v 14h 7a 7 7, 0, 0, 0, 0 -14" transform="rotate(90,390,432)"/><rect x="383" y="453" width="14" height="14" transform="rotate(0,390,460)"/><path d="M 397 145v 14h 14v -7a 7 7, 0, 0, 0, -7 -7" transform="rotate(0,404,152)"/><path d="M 397 159v 14h 7a 7 7, 0, 0, 0, 0 -14" transform="rotate(90,404,166)"/><rect x="397" y="187" width="14" height="14" transform="rotate(0,404,194)"/><path d="M 397 215v 14h 7a 7 7, 0, 0, 0, 0 -14" transform="rotate(180,404,222)"/><circle cx="404" cy="306" r="7" transform="rotate(0,404,306)"/><path d="M 397 327v 14h 7a 7 7, 0, 0, 0, 0 -14" transform="rotate(180,404,334)"/><rect x="397" y="355" width="14" height="14" transform="rotate(0,404,362)"/><rect x="397" y="411" width="14" height="14" transform="rotate(0,404,418)"/><rect x="397" y="453" width="14" height="14" transform="rotate(0,404,460)"/><circle cx="418" cy="138" r="7" transform="rotate(0,418,138)"/><path d="M 411 173v 14h 14v -7a 7 7, 0, 0, 0, -7 -7" transform="rotate(-90,418,180)"/><path d="M 411 187v 14h 14v -7a 7 7, 0, 0, 0, -7 -7" transform="rotate(90,418,194)"/><rect x="411" y="215" width="14" height="14" transform="rotate(0,418,222)"/><path d="M 411 271v 14h 14v -7a 7 7, 0, 0, 0, -7 -7" transform="rotate(-90,418,278)"/><path d="M 411 285v 14h 14v -7a 7 7, 0, 0, 0, -7 -7" transform="rotate(180,418,292)"/><path d="M 411 327v 14h 7a 7 7, 0, 0, 0, 0 -14" transform="rotate(0,418,334)"/><rect x="411" y="355" width="14" height="14" transform="rotate(0,418,362)"/><rect x="411" y="369" width="14" height="14" transform="rotate(0,418,376)"/><rect x="411" y="383" width="14" height="14" transform="rotate(0,418,390)"/><rect x="411" y="397" width="14" height="14" transform="rotate(0,418,404)"/><rect x="411" y="411" width="14" height="14" transform="rotate(0,418,418)"/><path d="M 411 425v 14h 7a 7 7, 0, 0, 0, 0 -14" transform="rotate(90,418,432)"/><rect x="411" y="453" width="14" height="14" transform="rotate(0,418,460)"/><path d="M 425 145v 14h 14v -7a 7 7, 0, 0, 0, -7 -7" transform="rotate(-90,432,152)"/><rect x="425" y="159" width="14" height="14" transform="rotate(0,432,166)"/><rect x="425" y="173" width="14" height="14" transform="rotate(0,432,180)"/><path d="M 425 201v 14h 14v -7a 7 7, 0, 0, 0, -7 -7" transform="rotate(-90,432,208)"/><rect x="425" y="215" width="14" height="14" transform="rotate(0,432,222)"/><rect x="425" y="271" width="14" height="14" transform="rotate(0,432,278)"/><rect x="425" y="285" width="14" height="14" transform="rotate(0,432,292)"/><rect x="425" y="299" width="14" height="14" transform="rotate(0,432,306)"/><path d="M 425 313v 14h 14v -7a 7 7, 0, 0, 0, -7 -7" transform="rotate(180,432,320)"/><path d="M 425 341v 14h 7a 7 7, 0, 0, 0, 0 -14" transform="rotate(-90,432,348)"/><path d="M 425 355v 14h 14v -7a 7 7, 0, 0, 0, -7 -7" transform="rotate(90,432,362)"/><rect x="425" y="383" width="14" height="14" transform="rotate(0,432,390)"/><rect x="425" y="397" width="14" height="14" transform="rotate(0,432,404)"/><rect x="425" y="411" width="14" height="14" transform="rotate(0,432,418)"/><path d="M 425 439v 14h 14v -7a 7 7, 0, 0, 0, -7 -7" transform="rotate(-90,432,446)"/><path d="M 425 453v 14h 14v -7a 7 7, 0, 0, 0, -7 -7" transform="rotate(90,432,460)"/><rect x="439" y="145" width="14" height="14" transform="rotate(0,446,152)"/><path d="M 439 173v 14h 7a 7 7, 0, 0, 0, 0 -14" transform="rotate(0,446,180)"/><rect x="439" y="201" width="14" height="14" transform="rotate(0,446,208)"/><rect x="439" y="215" width="14" height="14" transform="rotate(0,446,222)"/><path d="M 439 229v 14h 7a 7 7, 0, 0, 0, 0 -14" transform="rotate(90,446,236)"/><path d="M 439 271v 14h 7a 7 7, 0, 0, 0, 0 -14" transform="rotate(0,446,278)"/><path d="M 439 299v 14h 14v -7a 7 7, 0, 0, 0, -7 -7" transform="rotate(0,446,306)"/><rect x="439" y="313" width="14" height="14" transform="rotate(0,446,320)"/><path d="M 439 327v 14h 7a 7 7, 0, 0, 0, 0 -14" transform="rotate(90,446,334)"/><rect x="439" y="383" width="14" height="14" transform="rotate(0,446,390)"/><rect x="439" y="397" width="14" height="14" transform="rotate(0,446,404)"/><rect x="439" y="411" width="14" height="14" transform="rotate(0,446,418)"/><rect x="439" y="425" width="14" height="14" transform="rotate(0,446,432)"/><path d="M 439 439v 14h 14v -7a 7 7, 0, 0, 0, -7 -7" transform="rotate(90,446,446)"/><path d="M 453 131v 14h 7a 7 7, 0, 0, 0, 0 -14" transform="rotate(-90,460,138)"/><rect x="453" y="145" width="14" height="14" transform="rotate(0,460,152)"/><path d="M 453 159v 14h 7a 7 7, 0, 0, 0, 0 -14" transform="rotate(90,460,166)"/><path d="M 453 187v 14h 14v -7a 7 7, 0, 0, 0, -7 -7" transform="rotate(-90,460,194)"/><rect x="453" y="201" width="14" height="14" transform="rotate(0,460,208)"/><path d="M 453 215v 14h 14v -7a 7 7, 0, 0, 0, -7 -7" transform="rotate(90,460,222)"/><path d="M 453 243v 14h 7a 7 7, 0, 0, 0, 0 -14" transform="rotate(-90,460,250)"/><path d="M 453 257v 14h 7a 7 7, 0, 0, 0, 0 -14" transform="rotate(90,460,264)"/><rect x="453" y="313" width="14" height="14" transform="rotate(0,460,320)"/><path d="M 453 341v 14h 14v -7a 7 7, 0, 0, 0, -7 -7" transform="rotate(-90,460,348)"/><path d="M 453 355v 14h 14v -7a 7 7, 0, 0, 0, -7 -7" transform="rotate(180,460,362)"/><rect x="453" y="383" width="14" height="14" transform="rotate(0,460,390)"/><path d="M 467 145v 14h 7a 7 7, 0, 0, 0, 0 -14" transform="rotate(0,474,152)"/><path d="M 467 173v 14h 7a 7 7, 0, 0, 0, 0 -14" transform="rotate(-90,474,180)"/><path d="M 467 187v 14h 14v -7a 7 7, 0, 0, 0, -7 -7" transform="rotate(90,474,194)"/><path d="M 467 271v 14h 7a 7 7, 0, 0, 0, 0 -14" transform="rotate(-90,474,278)"/><path d="M 467 285v 14h 7a 7 7, 0, 0, 0, 0 -14" transform="rotate(90,474,292)"/><path d="M 467 313v 14h 14v -7a 7 7, 0, 0, 0, -7 -7" transform="rotate(0,474,320)"/><rect x="467" y="327" width="14" height="14" transform="rotate(0,474,334)"/><rect x="467" y="341" width="14" height="14" transform="rotate(0,474,348)"/><path d="M 467 355v 14h 14v -7a 7 7, 0, 0, 0, -7 -7" transform="rotate(90,474,362)"/><path d="M 467 383v 14h 7a 7 7, 0, 0, 0, 0 -14" transform="rotate(0,474,390)"/><circle cx="474" cy="432" r="7" transform="rotate(0,474,432)"/><circle cx="474" cy="474" r="7" transform="rotate(0,474,474)"/></clipPath><clipPath id="clip-path-corners-square-color-0-0"><path clip-rule="evenodd" d="M 19 54v 28a 35 35, 0, 0, 0, 35 35h 28a 35 35, 0, 0, 0, 35 -35v -28a 35 35, 0, 0, 0, -35 -35h -28a 35 35, 0, 0, 0, -35 35M 54 33h 28a 21 21, 0, 0, 1, 21 21v 28a 21 21, 0, 0, 1, -21 21h -28a 21 21, 0, 0, 1, -21 -21v -28a 21 21, 0, 0, 1, 21 -21" transform="rotate(0,68,68)"/></clipPath><clipPath id="clip-path-corners-dot-color-0-0"><circle cx="68" cy="68" r="21" transform="rotate(0,68,68)"/></clipPath><clipPath id="clip-path-corners-square-color-1-0"><path clip-rule="evenodd" d="M 383 54v 28a 35 35, 0, 0, 0, 35 35h 28a 35 35, 0, 0, 0, 35 -35v -28a 35 35, 0, 0, 0, -35 -35h -28a 35 35, 0, 0, 0, -35 35M 418 33h 28a 21 21, 0, 0, 1, 21 21v 28a 21 21, 0, 0, 1, -21 21h -28a 21 21, 0, 0, 1, -21 -21v -28a 21 21, 0, 0, 1, 21 -21" transform="rotate(90,432,68)"/></clipPath><clipPath id="clip-path-corners-dot-color-1-0"><circle cx="432" cy="68" r="21" transform="rotate(90,432,68)"/></clipPath><clipPath id="clip-path-corners-square-color-0-1"><path clip-rule="evenodd" d="M 19 418v 28a 35 35, 0, 0, 0, 35 35h 28a 35 35, 0, 0, 0, 35 -35v -28a 35 35, 0, 0, 0, -35 -35h -28a 35 35, 0, 0, 0, -35 35M 54 397h 28a 21 21, 0, 0, 1, 21 21v 28a 21 21, 0, 0, 1, -21 21h -28a 21 21, 0, 0, 1, -21 -21v -28a 21 21, 0, 0, 1, 21 -21" transform="rotate(-90,68,432)"/></clipPath><clipPath id="clip-path-corners-dot-color-0-1"><circle cx="68" cy="432" r="21" transform="rotate(-90,68,432)"/></clipPath></defs><rect x="0" y="0" height="500" width="500" clip-path="url('#clip-path-background-color')" fill="#fff"/><rect x="0" y="0" height="500" width="500" clip-path="url('#clip-path-dot-color')" fill="#000000"/><rect x="19" y="19" height="98" width="98" clip-path="url('#clip-path-corners-square-color-0-0')" fill="#000000"/><rect x="47" y="47" height="42" width="42" clip-path="url('#clip-path-corners-dot-color-0-0')" fill="#000000"/><rect x="383" y="19" height="98" width="98" clip-path="url('#clip-path-corners-square-color-1-0')" fill="#000000"/><rect x="411" y="47" height="42" width="42" clip-path="url('#clip-path-corners-dot-color-1-0')" fill="#000000"/><rect x="19" y="383" height="98" width="98" clip-path="url('#clip-path-corners-square-color-0-1')" fill="#000000"/><rect x="47" y="411" height="42" width="42" clip-path="url('#clip-path-corners-dot-color-0-1')" fill="#000000"/></svg>