<svg version="1.1" id="Layer_1" xmlns="http://www.w3.org/2000/svg" xmlns:xlink="http://www.w3.org/1999/xlink" x="0px" y="0px"
	 width="100%" viewBox="0 0 1200 1200" enable-background="new 0 0 1200 1200" xml:space="preserve">
<path fill="#000000" opacity="1.000000" stroke="none" 
	d="
M761.000000,1201.000000 
	C507.333344,1201.000000 254.166672,1201.000000 1.000000,1201.000000 
	C1.000000,801.000000 1.000000,401.000000 1.000000,1.000000 
	C401.000000,1.000000 801.000000,1.000000 1201.000000,1.000000 
	C1201.000000,401.000000 1201.000000,801.000000 1201.000000,1201.000000 
	C1054.500000,1201.000000 908.000000,1201.000000 761.000000,1201.000000 
M603.541321,236.080963 
	C594.265381,240.699905 584.981567,245.303009 575.715149,249.940933 
	C555.046814,260.285645 534.410706,270.695251 513.716431,280.987762 
	C496.983429,289.310150 480.155853,297.442413 463.422150,305.763458 
	C443.159760,315.839172 422.962799,326.046356 402.718231,336.158081 
	C368.691193,353.153839 334.656128,370.133667 300.610382,387.092010 
	C278.931396,397.890381 257.238037,408.660217 235.530670,419.401489 
	C216.118347,429.007141 196.704559,438.610657 177.238586,448.106750 
	C167.731354,452.744690 159.223099,458.859802 155.884628,469.077209 
	C153.372147,476.766632 152.200012,485.230560 152.200867,493.349518 
	C152.206116,543.007141 152.796036,592.664307 153.030487,642.322388 
	C153.183929,674.821594 152.994186,707.322327 153.111282,739.821838 
	C153.149887,750.539490 157.645325,758.939514 167.379837,764.048645 
	C178.814865,770.050354 190.238663,776.078125 201.770020,781.890808 
	C227.719742,794.971375 253.607971,808.184875 279.773834,820.821228 
	C292.512909,826.973328 306.244324,827.158630 319.170929,821.714539 
	C333.488617,815.684631 347.266968,808.348816 361.164581,801.352112 
	C384.829498,789.438110 408.331207,777.198242 432.051117,765.396057 
	C442.015198,760.438293 452.354034,760.676331 462.377625,765.662170 
	C487.092804,777.955811 511.746246,790.373596 536.462708,802.664673 
	C561.451782,815.091309 586.492981,827.412720 611.499939,839.803406 
	C646.077637,856.936401 680.675964,874.028259 715.205933,891.257080 
	C740.774170,904.014404 766.292969,916.873108 791.746094,929.858582 
	C806.581665,937.427307 821.141724,936.990417 835.736511,929.364380 
	C850.594238,921.600708 865.422791,913.777588 880.374878,906.198975 
	C900.644714,895.924988 920.932556,885.678772 941.376160,875.757507 
	C959.374512,867.023071 977.581421,858.716797 995.727478,850.288574 
	C1006.506165,845.282288 1017.523315,840.747620 1025.671265,831.495605 
	C1031.175049,825.246033 1035.036743,818.614868 1035.012939,809.823608 
	C1034.974121,795.489746 1028.011353,784.573853 1018.498535,775.041321 
	C1002.158447,758.667419 985.298706,742.812805 968.911743,726.484741 
	C922.653259,680.392822 876.531250,634.164001 830.338440,588.006165 
	C819.633667,577.309509 814.457458,564.543640 814.497192,549.313232 
	C814.651062,490.313812 814.708435,431.313049 814.432800,372.314484 
	C814.376587,360.282013 811.448364,348.718933 802.456421,339.699127 
	C792.706238,329.918701 782.920593,320.173645 773.146912,310.416718 
	C753.723755,291.026978 734.340576,271.596924 714.858032,252.267029 
	C702.935608,240.438065 691.044373,228.564560 678.729614,217.152908 
	C675.399536,214.067062 670.807068,211.709229 666.392517,210.561157 
	C657.431702,208.230728 649.757507,213.068069 642.104675,216.788330 
	C629.405273,222.961960 616.827148,229.385132 603.541321,236.080963 
z"/>
<path fill="#FEFEFE" opacity="1.000000" stroke="none" 
	d="
M603.869629,235.892090 
	C616.827148,229.385132 629.405273,222.961960 642.104675,216.788330 
	C649.757507,213.068069 657.431702,208.230728 666.392517,210.561157 
	C670.807068,211.709229 675.399536,214.067062 678.729614,217.152908 
	C691.044373,228.564560 702.935608,240.438065 714.858032,252.267029 
	C734.340576,271.596924 753.723755,291.026978 773.146912,310.416718 
	C782.920593,320.173645 792.706238,329.918701 802.456421,339.699127 
	C811.448364,348.718933 814.376587,360.282013 814.432800,372.314484 
	C814.708435,431.313049 814.651062,490.313812 814.497192,549.313232 
	C814.457458,564.543640 819.633667,577.309509 830.338440,588.006165 
	C876.531250,634.164001 922.653259,680.392822 968.911743,726.484741 
	C985.298706,742.812805 1002.158447,758.667419 1018.498535,775.041321 
	C1028.011353,784.573853 1034.974121,795.489746 1035.012939,809.823608 
	C1035.036743,818.614868 1031.175049,825.246033 1025.671265,831.495605 
	C1017.523315,840.747620 1006.506165,845.282288 995.727478,850.288574 
	C977.581421,858.716797 959.374512,867.023071 941.376160,875.757507 
	C920.932556,885.678772 900.644714,895.924988 880.374878,906.198975 
	C865.422791,913.777588 850.594238,921.600708 835.736511,929.364380 
	C821.141724,936.990417 806.581665,937.427307 791.746094,929.858582 
	C766.292969,916.873108 740.774170,904.014404 715.205933,891.257080 
	C680.675964,874.028259 646.077637,856.936401 611.499939,839.803406 
	C586.492981,827.412720 561.451782,815.091309 536.462708,802.664673 
	C511.746246,790.373596 487.092804,777.955811 462.377625,765.662170 
	C452.354034,760.676331 442.015198,760.438293 432.051117,765.396057 
	C408.331207,777.198242 384.829498,789.438110 361.164581,801.352112 
	C347.266968,808.348816 333.488617,815.684631 319.170929,821.714539 
	C306.244324,827.158630 292.512909,826.973328 279.773834,820.821228 
	C253.607971,808.184875 227.719742,794.971375 201.770020,781.890808 
	C190.238663,776.078125 178.814865,770.050354 167.379837,764.048645 
	C157.645325,758.939514 153.149887,750.539490 153.111282,739.821838 
	C152.994186,707.322327 153.183929,674.821594 153.030487,642.322388 
	C152.796036,592.664307 152.206116,543.007141 152.200867,493.349518 
	C152.200012,485.230560 153.372147,476.766632 155.884628,469.077209 
	C159.223099,458.859802 167.731354,452.744690 177.238586,448.106750 
	C196.704559,438.610657 216.118347,429.007141 235.530670,419.401489 
	C257.238037,408.660217 278.931396,397.890381 300.610382,387.092010 
	C334.656128,370.133667 368.691193,353.153839 402.718231,336.158081 
	C422.962799,326.046356 443.159760,315.839172 463.422150,305.763458 
	C480.155853,297.442413 496.983429,289.310150 513.716431,280.987762 
	C534.410706,270.695251 555.046814,260.285645 575.715149,249.940933 
	C584.981567,245.303009 594.265381,240.699905 603.869629,235.892090 
M637.052002,403.596985 
	C659.099548,392.426025 681.187683,381.333954 703.174316,370.044250 
	C711.664612,365.684692 720.011230,361.025116 728.254272,356.212646 
	C732.584412,353.684662 733.583130,347.579132 730.578674,343.632782 
	C728.269653,340.599823 725.800598,337.651672 723.122192,334.943207 
	C709.788208,321.459656 696.295044,308.133148 682.985168,294.626038 
	C668.685364,280.114441 664.886169,279.534698 648.264771,288.113159 
	C619.737610,302.836334 591.072754,317.293732 562.423462,331.779114 
	C528.917297,348.720154 495.349426,365.539062 461.839172,382.472015 
	C432.606323,397.243561 403.426605,412.120239 374.203400,426.910858 
	C357.650238,435.288910 341.061340,443.596436 324.480072,451.918915 
	C303.159363,462.620270 281.799744,473.244629 260.522644,484.031891 
	C253.790436,487.445038 247.118393,491.029266 240.694916,494.983673 
	C234.627335,498.718903 233.986649,502.389709 238.329025,508.049988 
	C241.547546,512.245361 245.328400,516.023682 248.992218,519.860352 
	C259.332153,530.688171 269.858154,541.340454 280.089417,552.269165 
	C290.275208,563.149475 302.315063,567.531067 316.723511,562.831360 
	C322.591858,560.917236 328.083496,557.797852 333.662445,555.055786 
	C354.141205,544.990356 374.573700,534.830872 395.045593,524.751343 
	C407.294891,518.720215 419.460297,512.496948 431.891571,506.863495 
	C444.412415,501.189453 452.442841,503.046509 462.160400,512.808899 
	C501.400146,552.229797 540.655273,591.635437 579.887634,631.063660 
	C603.839783,655.135437 627.659424,679.339844 651.716797,703.305725 
	C701.974609,753.372437 752.329773,803.341553 802.715149,853.279907 
	C807.036926,857.563416 812.487793,860.808167 818.675659,859.706360 
	C824.864624,858.604370 831.091003,856.613708 836.762695,853.891113 
	C864.608521,840.524048 892.291443,826.816589 919.995178,813.154785 
	C928.547729,808.937256 937.222717,804.886353 945.408875,800.029602 
	C954.327087,794.738525 954.268921,788.562622 948.316772,780.571167 
	C947.528870,779.513428 946.461426,778.663269 945.519287,777.721130 
	C906.056580,738.255859 866.594727,698.789734 827.130005,659.326477 
	C768.820068,601.018677 710.506531,542.714600 652.197937,484.405426 
	C636.648987,468.856293 621.075500,453.331421 605.587708,437.721497 
	C598.705322,430.784851 599.071655,424.198303 606.844055,419.795349 
	C616.565430,414.288300 626.557739,409.259644 637.052002,403.596985 
z"/>
<path fill="#010101" opacity="1.000000" stroke="none" 
	d="
M636.742554,403.810730 
	C626.557739,409.259644 616.565430,414.288300 606.844055,419.795349 
	C599.071655,424.198303 598.705322,430.784851 605.587708,437.721497 
	C621.075500,453.331421 636.648987,468.856293 652.197937,484.405426 
	C710.506531,542.714600 768.820068,601.018677 827.130005,659.326477 
	C866.594727,698.789734 906.056580,738.255859 945.519287,777.721130 
	C946.461426,778.663269 947.528870,779.513428 948.316772,780.571167 
	C954.268921,788.562622 954.327087,794.738525 945.408875,800.029602 
	C937.222717,804.886353 928.547729,808.937256 919.995178,813.154785 
	C892.291443,826.816589 864.608521,840.524048 836.762695,853.891113 
	C831.091003,856.613708 824.864624,858.604370 818.675659,859.706360 
	C812.487793,860.808167 807.036926,857.563416 802.715149,853.279907 
	C752.329773,803.341553 701.974609,753.372437 651.716797,703.305725 
	C627.659424,679.339844 603.839783,655.135437 579.887634,631.063660 
	C540.655273,591.635437 501.400146,552.229797 462.160400,512.808899 
	C452.442841,503.046509 444.412415,501.189453 431.891571,506.863495 
	C419.460297,512.496948 407.294891,518.720215 395.045593,524.751343 
	C374.573700,534.830872 354.141205,544.990356 333.662445,555.055786 
	C328.083496,557.797852 322.591858,560.917236 316.723511,562.831360 
	C302.315063,567.531067 290.275208,563.149475 280.089417,552.269165 
	C269.858154,541.340454 259.332153,530.688171 248.992218,519.860352 
	C245.328400,516.023682 241.547546,512.245361 238.329025,508.049988 
	C233.986649,502.389709 234.627335,498.718903 240.694916,494.983673 
	C247.118393,491.029266 253.790436,487.445038 260.522644,484.031891 
	C281.799744,473.244629 303.159363,462.620270 324.480072,451.918915 
	C341.061340,443.596436 357.650238,435.288910 374.203400,426.910858 
	C403.426605,412.120239 432.606323,397.243561 461.839172,382.472015 
	C495.349426,365.539062 528.917297,348.720154 562.423462,331.779114 
	C591.072754,317.293732 619.737610,302.836334 648.264771,288.113159 
	C664.886169,279.534698 668.685364,280.114441 682.985168,294.626038 
	C696.295044,308.133148 709.788208,321.459656 723.122192,334.943207 
	C725.800598,337.651672 728.269653,340.599823 730.578674,343.632782 
	C733.583130,347.579132 732.584412,353.684662 728.254272,356.212646 
	C720.011230,361.025116 711.664612,365.684692 703.174316,370.044250 
	C681.187683,381.333954 659.099548,392.426025 636.742554,403.810730 
z"/>
</svg>